<svg width="29" height="36" viewBox="0 0 29 36" fill="none" xmlns="http://www.w3.org/2000/svg">
<path d="M14.5 4.18185L2 34.7273H15L19 27.6364V34.7273H27L14.5 4.18185Z" stroke="#0087E9" stroke-width="2"/>
<path d="M14 4.18185L17 3.09094" stroke="#0087E9" stroke-width="2" stroke-linecap="round"/>
<path d="M14.4865 4.2703L14 2.00003" stroke="#0087E9" stroke-width="2" stroke-linecap="round"/>
<path d="M11.8417 2.15115C11.3227 1.96241 10.7489 2.23017 10.5602 2.7492C10.3715 3.26823 10.6392 3.842 11.1583 4.03074L11.8417 2.15115ZM14.8417 3.24206L11.8417 2.15115L11.1583 4.03074L14.1583 5.12164L14.8417 3.24206Z" fill="#0087E9"/>
<path d="M8.38535 17.0294C7.94971 17.3689 7.87174 17.9972 8.2112 18.4328C8.55066 18.8685 9.17901 18.9465 9.61465 18.607L8.38535 17.0294ZM12.5 15.0909L13.3366 14.5431L12.7418 13.6347L11.8854 14.3021L12.5 15.0909ZM15 18.9091L14.1634 19.4569L14.9181 20.6095L15.7801 19.5348L15 18.9091ZM9.61465 18.607L13.1146 15.8797L11.8854 14.3021L8.38535 17.0294L9.61465 18.607ZM11.6634 15.6387L14.1634 19.4569L15.8366 18.3613L13.3366 14.5431L11.6634 15.6387ZM15.7801 19.5348L19.2801 15.1712L17.7199 13.9198L14.2199 18.2834L15.7801 19.5348Z" fill="#0087E9"/>
<path d="M6.39309 21.9325C5.95415 22.2677 5.87004 22.8953 6.20523 23.3342C6.54042 23.7732 7.16798 23.8573 7.60691 23.5221L6.39309 21.9325ZM12 18.9091L12.9091 18.4925L12.3877 17.3549L11.3931 18.1144L12 18.9091ZM14.5 24.3637L13.5909 24.7803L14.2604 26.2409L15.2752 24.9953L14.5 24.3637ZM18.5 19.4546L19.183 18.7241L18.401 17.993L17.7248 18.8229L18.5 19.4546ZM21.317 23.4577C21.7204 23.8349 22.3532 23.8137 22.7304 23.4103C23.1076 23.0069 23.0864 22.3741 22.683 21.9969L21.317 23.4577ZM7.60691 23.5221L12.6069 19.7039L11.3931 18.1144L6.39309 21.9325L7.60691 23.5221ZM11.0909 19.3258L13.5909 24.7803L15.4091 23.947L12.9091 18.4925L11.0909 19.3258ZM15.2752 24.9953L19.2752 20.0862L17.7248 18.8229L13.7248 23.732L15.2752 24.9953ZM17.817 20.185L21.317 23.4577L22.683 21.9969L19.183 18.7241L17.817 20.185Z" fill="#0087E9"/>
</svg>
